<svg width="160" height="160" viewBox="0 0 160 160" fill="none" xmlns="http://www.w3.org/2000/svg">
<g clip-path="url(#clip0)">
<mask id="mask0" mask-type="alpha" maskUnits="userSpaceOnUse" x="1" y="0" width="67" height="49">
<path d="M29.8819 5.28179C17.1225 7.73604 7.14158 17.7701 4.70349 30.6032C3.56825 36.5741 2.63873 42.5731 1.91492 48.5925C14.5244 47.2159 30.047 43.5333 43.2508 34.4569C54.2248 26.9129 60.0483 14.0517 67.1568 0.845764C54.6692 1.43315 42.2121 2.91183 29.8819 5.28179Z" fill="white"/>
</mask>
<g mask="url(#mask0)">
<path fill-rule="evenodd" clip-rule="evenodd" d="M29.8819 5.28179C17.1225 7.73604 7.14158 17.7701 4.70349 30.6032C3.56825 36.5741 2.63873 42.5731 1.91492 48.5925C14.5244 47.2159 30.047 43.5333 43.2508 34.4569C54.2248 26.9129 60.0483 14.0517 67.1568 0.845764C54.6692 1.43315 42.2121 2.91183 29.8819 5.28179Z" fill="url(#paint0_linear)"/>
</g>
<mask id="mask1" mask-type="alpha" maskUnits="userSpaceOnUse" x="0" y="0" width="145" height="115">
<path d="M79.0095 0.554626C74.3416 0.562288 69.6737 0.697642 65.0083 0.95558C58.1486 13.7095 52.5079 26.1186 41.9073 33.4048C29.1962 42.1415 14.273 45.7194 2.10286 47.0704C-0.716187 69.4293 -0.698409 92.0564 2.15873 114.408C13.7092 98.3567 28.7543 91.2417 39.266 89.8115C75.8984 84.8367 87.4235 60.1027 103.944 33.7368C113.041 19.2156 128.978 13.9163 144.028 12.55C139.891 8.92358 134.801 6.36463 129.168 5.2818C112.94 2.16355 96.4902 0.585273 80.0381 0.554626H79.0095Z" fill="white"/>
</mask>
<g mask="url(#mask1)">
<path fill-rule="evenodd" clip-rule="evenodd" d="M79.0095 0.554626C74.3416 0.562288 69.6737 0.697642 65.0083 0.95558C58.1486 13.7095 52.5079 26.1186 41.9073 33.4048C29.1962 42.1415 14.273 45.7194 2.10286 47.0704C-0.716187 69.4293 -0.698409 92.0564 2.15873 114.408C13.7092 98.3567 28.7543 91.2417 39.266 89.8115C75.8984 84.8367 87.4235 60.1027 103.944 33.7368C113.041 19.2156 128.978 13.9163 144.028 12.55C139.891 8.92358 134.801 6.36463 129.168 5.2818C112.94 2.16355 96.4902 0.585273 80.0381 0.554626H79.0095Z" fill="url(#paint1_linear)"/>
</g>
<mask id="mask2" mask-type="alpha" maskUnits="userSpaceOnUse" x="0" y="11" width="160" height="145">
<path d="M103.944 32.4087C87.4235 58.7772 79.5225 77.9821 42.8927 82.9621C31.9822 84.4408 12.7365 85.0078 0.868576 102.034C1.63556 111.55 2.91556 121.032 4.7035 130.443C7.10858 143.113 16.8711 153.052 29.3994 155.665C31.6216 136.738 38.8038 119.758 58.7352 107.732C88.4343 89.8115 100.312 100.762 131.002 91.8035C142.857 88.3431 152.056 82.3288 159.012 76.0157C158.756 60.805 157.199 45.6096 154.344 30.6032C152.863 22.7935 148.589 16.0233 142.593 11.3651C127.972 12.9357 112.752 18.3498 103.944 32.4087Z" fill="white"/>
</mask>
<g mask="url(#mask2)">
<path fill-rule="evenodd" clip-rule="evenodd" d="M103.944 32.4087C87.4235 58.7772 79.5225 77.9821 42.8927 82.9621C31.9822 84.4408 12.7365 85.0078 0.868576 102.034C1.63556 111.55 2.91556 121.032 4.7035 130.443C7.10858 143.113 16.8711 153.052 29.3994 155.665C31.6216 136.738 38.8038 119.758 58.7352 107.732C88.4343 89.8115 100.312 100.762 131.002 91.8035C142.857 88.3431 152.056 82.3288 159.012 76.0157C158.756 60.805 157.199 45.6096 154.344 30.6032C152.863 22.7935 148.589 16.0233 142.593 11.3651C127.972 12.9357 112.752 18.3498 103.944 32.4087Z" fill="url(#paint2_linear)"/>
</g>
<mask id="mask3" mask-type="alpha" maskUnits="userSpaceOnUse" x="90" y="119" width="67" height="42">
<path d="M126.024 123.042C102.499 131.687 93.6178 150.435 90.4889 160.262C103.446 159.721 116.373 158.221 129.168 155.762C141.93 153.308 151.909 143.274 154.344 130.443C155.043 126.768 155.665 123.083 156.208 119.39C155.126 119.367 154.024 119.354 152.907 119.354C143.86 119.354 133.801 120.179 126.024 123.042Z" fill="white"/>
</mask>
<g mask="url(#mask3)">
<path fill-rule="evenodd" clip-rule="evenodd" d="M126.024 123.042C102.499 131.687 93.6178 150.435 90.4889 160.262C103.446 159.721 116.373 158.221 129.168 155.762C141.93 153.308 151.909 143.274 154.344 130.443C155.043 126.768 155.665 123.083 156.208 119.39C155.126 119.367 154.024 119.354 152.907 119.354C143.86 119.354 133.801 120.179 126.024 123.042Z" fill="url(#paint3_linear)"/>
</g>
<mask id="mask4" mask-type="alpha" maskUnits="userSpaceOnUse" x="27" y="74" width="133" height="87">
<path d="M130.596 90.8152C99.4641 99.9018 87.4159 88.7951 57.2876 106.971C37.1962 119.091 29.8743 136.177 27.5708 155.228C28.3302 155.433 29.0997 155.611 29.8819 155.762C46.1079 158.88 62.5524 160.459 79.0019 160.489H80.0483C84.6273 160.482 89.2064 160.351 93.7803 160.104C96.8127 150.698 105.305 133 127.581 124.809C135.784 121.793 146.644 121.15 155.916 121.323C158.004 107.803 159.05 94.1633 159.05 80.5232C159.05 78.6206 159.03 76.718 158.989 74.8154C151.937 81.2179 142.611 87.3037 130.596 90.8152Z" fill="white"/>
</mask>
<g mask="url(#mask4)">
<path fill-rule="evenodd" clip-rule="evenodd" d="M130.596 90.8152C99.4641 99.9018 87.4159 88.7951 57.2876 106.971C37.1962 119.091 29.8743 136.177 27.5708 155.228C28.3302 155.433 29.0997 155.611 29.8819 155.762C46.1079 158.88 62.5524 160.459 79.0019 160.489H80.0483C84.6273 160.482 89.2064 160.351 93.7803 160.104C96.8127 150.698 105.305 133 127.581 124.809C135.784 121.793 146.644 121.15 155.916 121.323C158.004 107.803 159.05 94.1633 159.05 80.5232C159.05 78.6206 159.03 76.718 158.989 74.8154C151.937 81.2179 142.611 87.3037 130.596 90.8152Z" fill="url(#paint4_linear)"/>
</g>
<path d="M28.92 50L24.32 41.42V51H21.16V37H25.5L28.96 43.6L32.42 37H36.76V51H33.52V41.46L28.92 50ZM42.1144 51.18C40.9944 51.18 40.0744 50.8733 39.3544 50.26C38.6344 49.6467 38.2744 48.86 38.2744 47.9C38.2744 46.9 38.6544 46.12 39.4144 45.56C40.1877 45 41.261 44.72 42.6344 44.72C43.0477 44.72 43.4544 44.7467 43.8544 44.8C44.2544 44.8533 44.6477 44.9267 45.0344 45.02V44.5C45.0344 43.9667 44.861 43.5733 44.5144 43.32C44.181 43.0533 43.681 42.92 43.0144 42.92C42.601 42.92 42.1344 42.9867 41.6144 43.12C41.0944 43.2533 40.4944 43.4667 39.8144 43.76L38.6544 41.38C39.5077 40.9933 40.341 40.7067 41.1544 40.52C41.981 40.32 42.7944 40.22 43.5944 40.22C45.061 40.22 46.201 40.5733 47.0144 41.28C47.8277 41.9733 48.2344 42.9533 48.2344 44.22V51H45.0344V50.36C44.6077 50.6533 44.1544 50.8667 43.6744 51C43.2077 51.12 42.6877 51.18 42.1144 51.18ZM41.3544 47.84C41.3544 48.1733 41.501 48.4333 41.7944 48.62C42.0877 48.8067 42.4944 48.9 43.0144 48.9C43.401 48.9 43.761 48.86 44.0944 48.78C44.441 48.7 44.7544 48.5733 45.0344 48.4V47.04C44.7277 46.96 44.4144 46.9 44.0944 46.86C43.7744 46.82 43.4477 46.8 43.1144 46.8C42.5544 46.8 42.121 46.8933 41.8144 47.08C41.5077 47.2533 41.3544 47.5067 41.3544 47.84ZM51.7802 39.44C51.2868 39.44 50.8668 39.2667 50.5202 38.92C50.1735 38.5733 50.0002 38.1533 50.0002 37.66C50.0002 37.1667 50.1735 36.7467 50.5202 36.4C50.8668 36.0533 51.2868 35.88 51.7802 35.88C52.2735 35.88 52.6935 36.0533 53.0402 36.4C53.3868 36.7467 53.5602 37.1667 53.5602 37.66C53.5602 38.1533 53.3868 38.5733 53.0402 38.92C52.6935 39.2667 52.2735 39.44 51.7802 39.44ZM53.4002 40.42V51H50.1602V40.42H53.4002ZM55.3945 51V40.42H58.6345V41.14C59.0212 40.8467 59.4545 40.62 59.9345 40.46C60.4279 40.3 60.9412 40.22 61.4745 40.22C62.7145 40.22 63.7279 40.62 64.5145 41.42C65.3012 42.22 65.6945 43.24 65.6945 44.48V51H62.4545V44.92C62.4545 44.3467 62.2745 43.8867 61.9145 43.54C61.5679 43.18 61.1079 43 60.5345 43C60.1212 43 59.7545 43.0733 59.4345 43.22C59.1145 43.3667 58.8479 43.5733 58.6345 43.84V51H55.3945ZM68.7305 47.78V43.12H66.5905V40.42H68.7305V37.7L71.9705 37V40.42H74.9305V43.12H71.9705V47.14C71.9705 47.6067 72.0705 47.94 72.2705 48.14C72.4838 48.3267 72.8505 48.42 73.3705 48.42C73.6238 48.42 73.8638 48.4067 74.0905 48.38C74.3171 48.34 74.5638 48.28 74.8305 48.2V50.82C74.5371 50.9133 74.1638 50.9867 73.7105 51.04C73.2571 51.1067 72.8771 51.14 72.5705 51.14C71.3038 51.14 70.3438 50.86 69.6905 50.3C69.0505 49.7267 68.7305 48.8867 68.7305 47.78ZM85.8953 49.6C85.2286 50.16 84.542 50.5667 83.8353 50.82C83.142 51.0733 82.3553 51.2 81.4753 51.2C80.6753 51.2 79.922 51.06 79.2153 50.78C78.5086 50.5 77.8953 50.1133 77.3753 49.62C76.8686 49.1267 76.462 48.5467 76.1553 47.88C75.862 47.2 75.7153 46.48 75.7153 45.72C75.7153 44.96 75.8553 44.2467 76.1353 43.58C76.4286 42.9 76.822 42.3133 77.3153 41.82C77.8086 41.3267 78.3886 40.94 79.0553 40.66C79.7353 40.38 80.462 40.24 81.2353 40.24C82.0086 40.24 82.722 40.3867 83.3753 40.68C84.0286 40.9733 84.5886 41.3733 85.0553 41.88C85.5353 42.3867 85.9086 43 86.1753 43.72C86.442 44.4267 86.5753 45.1933 86.5753 46.02V46.82H79.0353C79.2486 47.3133 79.582 47.72 80.0353 48.04C80.4886 48.3467 81.022 48.5 81.6353 48.5C82.0753 48.5 82.4753 48.4333 82.8353 48.3C83.1953 48.1533 83.502 47.9533 83.7553 47.7L85.8953 49.6ZM81.1753 42.88C80.642 42.88 80.182 43.0267 79.7953 43.32C79.4086 43.6133 79.1353 44.0267 78.9753 44.56H83.3953C83.222 44.0533 82.9353 43.6467 82.5353 43.34C82.1486 43.0333 81.6953 42.88 81.1753 42.88ZM88.0898 51V40.42H91.3298V41.14C91.7165 40.8467 92.1498 40.62 92.6298 40.46C93.1232 40.3 93.6365 40.22 94.1698 40.22C95.4098 40.22 96.4232 40.62 97.2098 41.42C97.9965 42.22 98.3898 43.24 98.3898 44.48V51H95.1498V44.92C95.1498 44.3467 94.9698 43.8867 94.6098 43.54C94.2632 43.18 93.8032 43 93.2298 43C92.8165 43 92.4498 43.0733 92.1298 43.22C91.8098 43.3667 91.5432 43.5733 91.3298 43.84V51H88.0898ZM103.696 51.18C102.576 51.18 101.656 50.8733 100.936 50.26C100.216 49.6467 99.8564 48.86 99.8564 47.9C99.8564 46.9 100.236 46.12 100.996 45.56C101.77 45 102.843 44.72 104.216 44.72C104.63 44.72 105.036 44.7467 105.436 44.8C105.836 44.8533 106.23 44.9267 106.616 45.02V44.5C106.616 43.9667 106.443 43.5733 106.096 43.32C105.763 43.0533 105.263 42.92 104.596 42.92C104.183 42.92 103.716 42.9867 103.196 43.12C102.676 43.2533 102.076 43.4667 101.396 43.76L100.236 41.38C101.09 40.9933 101.923 40.7067 102.736 40.52C103.563 40.32 104.376 40.22 105.176 40.22C106.643 40.22 107.783 40.5733 108.596 41.28C109.41 41.9733 109.816 42.9533 109.816 44.22V51H106.616V50.36C106.19 50.6533 105.736 50.8667 105.256 51C104.79 51.12 104.27 51.18 103.696 51.18ZM102.936 47.84C102.936 48.1733 103.083 48.4333 103.376 48.62C103.67 48.8067 104.076 48.9 104.596 48.9C104.983 48.9 105.343 48.86 105.676 48.78C106.023 48.7 106.336 48.5733 106.616 48.4V47.04C106.31 46.96 105.996 46.9 105.676 46.86C105.356 46.82 105.03 46.8 104.696 46.8C104.136 46.8 103.703 46.8933 103.396 47.08C103.09 47.2533 102.936 47.5067 102.936 47.84ZM111.742 51V40.42H114.982V41.14C115.369 40.8467 115.802 40.62 116.282 40.46C116.776 40.3 117.289 40.22 117.822 40.22C119.062 40.22 120.076 40.62 120.862 41.42C121.649 42.22 122.042 43.24 122.042 44.48V51H118.802V44.92C118.802 44.3467 118.622 43.8867 118.262 43.54C117.916 43.18 117.456 43 116.882 43C116.469 43 116.102 43.0733 115.782 43.22C115.462 43.3667 115.196 43.5733 114.982 43.84V51H111.742ZM129.249 48.4C129.689 48.4 130.095 48.3067 130.469 48.12C130.842 47.9333 131.202 47.6467 131.549 47.26L133.469 49.26C132.935 49.8733 132.282 50.3533 131.509 50.7C130.735 51.0333 129.929 51.2 129.089 51.2C128.302 51.2 127.562 51.06 126.869 50.78C126.189 50.5 125.595 50.1133 125.089 49.62C124.595 49.1267 124.202 48.5467 123.909 47.88C123.629 47.2133 123.489 46.4933 123.489 45.72C123.489 44.9467 123.629 44.2267 123.909 43.56C124.202 42.88 124.595 42.3 125.089 41.82C125.595 41.3267 126.189 40.94 126.869 40.66C127.562 40.3667 128.302 40.22 129.089 40.22C129.955 40.22 130.782 40.3933 131.569 40.74C132.355 41.0867 133.022 41.5667 133.569 42.18L131.589 44.24C131.215 43.8267 130.835 43.52 130.449 43.32C130.062 43.12 129.635 43.02 129.169 43.02C128.475 43.02 127.889 43.28 127.409 43.8C126.942 44.32 126.709 44.96 126.709 45.72C126.709 46.48 126.949 47.12 127.429 47.64C127.922 48.1467 128.529 48.4 129.249 48.4ZM144.059 49.6C143.393 50.16 142.706 50.5667 141.999 50.82C141.306 51.0733 140.519 51.2 139.639 51.2C138.839 51.2 138.086 51.06 137.379 50.78C136.673 50.5 136.059 50.1133 135.539 49.62C135.033 49.1267 134.626 48.5467 134.319 47.88C134.026 47.2 133.879 46.48 133.879 45.72C133.879 44.96 134.019 44.2467 134.299 43.58C134.593 42.9 134.986 42.3133 135.479 41.82C135.973 41.3267 136.553 40.94 137.219 40.66C137.899 40.38 138.626 40.24 139.399 40.24C140.173 40.24 140.886 40.3867 141.539 40.68C142.193 40.9733 142.753 41.3733 143.219 41.88C143.699 42.3867 144.073 43 144.339 43.72C144.606 44.4267 144.739 45.1933 144.739 46.02V46.82H137.199C137.413 47.3133 137.746 47.72 138.199 48.04C138.653 48.3467 139.186 48.5 139.799 48.5C140.239 48.5 140.639 48.4333 140.999 48.3C141.359 48.1533 141.666 47.9533 141.919 47.7L144.059 49.6ZM139.339 42.88C138.806 42.88 138.346 43.0267 137.959 43.32C137.573 43.6133 137.299 44.0267 137.139 44.56H141.559C141.386 44.0533 141.099 43.6467 140.699 43.34C140.313 43.0333 139.859 42.88 139.339 42.88Z" fill="white"/>
<path d="M114.992 139.816L115.264 133.8H122.752V135.96H117.36L117.264 138.152C117.584 138.045 117.904 137.971 118.224 137.928C118.555 137.875 118.901 137.848 119.264 137.848C120.501 137.848 121.499 138.168 122.256 138.808C123.013 139.437 123.392 140.269 123.392 141.304C123.392 141.88 123.275 142.408 123.04 142.888C122.816 143.357 122.496 143.763 122.08 144.104C121.664 144.445 121.163 144.712 120.576 144.904C120 145.085 119.36 145.176 118.656 145.176C117.845 145.176 117.072 145.048 116.336 144.792C115.611 144.536 114.965 144.163 114.4 143.672L115.952 141.912C116.432 142.307 116.885 142.589 117.312 142.76C117.739 142.92 118.213 143 118.736 143C119.344 143 119.829 142.856 120.192 142.568C120.555 142.28 120.736 141.901 120.736 141.432C120.736 140.973 120.533 140.605 120.128 140.328C119.733 140.04 119.227 139.896 118.608 139.896C118.299 139.896 117.979 139.933 117.648 140.008C117.317 140.083 117.008 140.189 116.72 140.328L114.992 139.816ZM129.427 145.16C128.67 145.16 127.976 145.021 127.347 144.744C126.718 144.467 126.184 144.077 125.747 143.576C125.31 143.075 124.968 142.467 124.723 141.752C124.478 141.037 124.355 140.248 124.355 139.384C124.355 138.52 124.478 137.736 124.723 137.032C124.968 136.317 125.31 135.709 125.747 135.208C126.195 134.707 126.728 134.317 127.347 134.04C127.976 133.763 128.67 133.624 129.427 133.624C130.184 133.624 130.872 133.763 131.491 134.04C132.12 134.317 132.654 134.707 133.091 135.208C133.539 135.709 133.886 136.317 134.131 137.032C134.376 137.736 134.499 138.52 134.499 139.384C134.499 140.248 134.376 141.037 134.131 141.752C133.886 142.467 133.544 143.075 133.107 143.576C132.67 144.077 132.136 144.467 131.507 144.744C130.878 145.021 130.184 145.16 129.427 145.16ZM129.427 142.92C130.216 142.92 130.835 142.605 131.283 141.976C131.742 141.347 131.971 140.483 131.971 139.384C131.971 138.307 131.742 137.453 131.283 136.824C130.824 136.184 130.206 135.864 129.427 135.864C128.648 135.864 128.03 136.184 127.571 136.824C127.112 137.453 126.883 138.307 126.883 139.384C126.883 140.483 127.107 141.347 127.555 141.976C128.014 142.605 128.638 142.92 129.427 142.92ZM144.456 141.848C144.456 142.328 144.339 142.771 144.104 143.176C143.87 143.581 143.544 143.933 143.128 144.232C142.723 144.52 142.232 144.749 141.656 144.92C141.091 145.08 140.472 145.16 139.8 145.16C138.894 145.16 138.035 145 137.224 144.68C136.424 144.36 135.763 143.917 135.24 143.352L136.984 141.752C137.411 142.2 137.827 142.509 138.232 142.68C138.648 142.851 139.16 142.936 139.768 142.936C140.387 142.936 140.883 142.819 141.256 142.584C141.64 142.349 141.832 142.035 141.832 141.64C141.832 141.309 141.667 141.048 141.336 140.856C141.016 140.664 140.568 140.568 139.992 140.568H138.936V138.504H139.72C140.254 138.504 140.691 138.376 141.032 138.12C141.374 137.853 141.544 137.517 141.544 137.112C141.544 136.749 141.374 136.456 141.032 136.232C140.702 135.997 140.275 135.88 139.752 135.88C139.219 135.88 138.755 135.976 138.36 136.168C137.976 136.349 137.55 136.68 137.08 137.16L135.32 135.576C135.864 134.968 136.542 134.493 137.352 134.152C138.163 133.8 138.995 133.624 139.848 133.624C140.478 133.624 141.059 133.704 141.592 133.864C142.126 134.013 142.579 134.227 142.952 134.504C143.326 134.781 143.619 135.117 143.832 135.512C144.046 135.907 144.152 136.339 144.152 136.808C144.152 137.352 144.014 137.853 143.736 138.312C143.459 138.76 143.075 139.123 142.584 139.4C143.16 139.624 143.614 139.949 143.944 140.376C144.286 140.803 144.456 141.293 144.456 141.848Z" fill="white"/>
</g>
<defs>
<linearGradient id="paint0_linear" x1="61.0013" y1="14.5395" x2="14.3645" y2="30.248" gradientUnits="userSpaceOnUse">
<stop stop-color="#121C28"/>
<stop offset="1" stop-color="#2A2367"/>
</linearGradient>
<linearGradient id="paint1_linear" x1="114.404" y1="20.2994" x2="39.0881" y2="89.0192" gradientUnits="userSpaceOnUse">
<stop stop-color="#28235B"/>
<stop offset="1" stop-color="#E6007E"/>
</linearGradient>
<linearGradient id="paint2_linear" x1="147.997" y1="55.3693" x2="21.0256" y2="123.426" gradientUnits="userSpaceOnUse">
<stop stop-color="#FF9500"/>
<stop offset="1" stop-color="#E6007E"/>
</linearGradient>
<linearGradient id="paint3_linear" x1="154.688" y1="138.523" x2="112.34" y2="156.725" gradientUnits="userSpaceOnUse">
<stop stop-color="#E6332A"/>
<stop offset="1" stop-color="#FF645B"/>
</linearGradient>
<linearGradient id="paint4_linear" x1="132.879" y1="107.08" x2="84.638" y2="147.806" gradientUnits="userSpaceOnUse">
<stop stop-color="#FF9500"/>
<stop offset="1" stop-color="#FF645B"/>
</linearGradient>
<clipPath id="clip0">
<rect width="160" height="160" fill="white"/>
</clipPath>
</defs>
</svg>
